<?xml version="1.0" encoding="utf-8"?>
<!-- Generator: Adobe Illustrator 24.3.2, SVG Export Plug-In . SVG Version: 6.00 Build 0)  -->
<svg version="1.1" id="Layer_1" xmlns="http://www.w3.org/2000/svg" xmlns:xlink="http://www.w3.org/1999/xlink" x="0px" y="0px"
	 viewBox="0 0 38.2 35.3" style="enable-background:new 0 0 38.2 35.3;" xml:space="preserve">
<style type="text/css">
	.st0{fill:#FFFFFF;}
</style>
<g>
	<path id="XMLID_35881_" class="st0" d="M31.8,8c0.3,0.2,0.6,0.4,0.8,0.5c0.1,0.1,0.1,0.1,0.2,0.1l0,0c0.5,0.4,1.3,0.3,1.7-0.2
		c0.4-0.5,0.3-1.3-0.2-1.7c-4.6-3.8-8.7-5.9-12.7-6.5c-2-0.3-3.9-0.2-5.9,0.2c-1.6,0.3-3.2,0.9-4.9,1.7l-1-1.4
		C9.6,0.3,9.1,0.1,8.7,0.1c-0.4,0.1-0.8,0.3-1,0.8L5,7.6C4.9,8,4.9,8.4,5.1,8.7C5.3,9,5.7,9.2,6,9.3l7.2,0.8c0,0,0.1,0,0.1,0
		c0.4,0,0.8-0.2,1-0.6c0.2-0.4,0.3-0.9,0-1.3L13.7,7c2-1.2,4.1-1.9,6.3-2.1c3.6-0.4,6.9,0.7,9.1,1.6C30.2,7,31.2,7.6,31.8,8z
		 M19.8,3.3c-2.7,0.3-5.3,1.2-7.6,2.8c-0.4,0.2-0.5,0.7-0.2,1.1l0.8,1.3L6.7,7.7l2.2-5.6l0.9,1.4c0.2,0.3,0.7,0.4,1,0.3
		c1.8-0.9,3.5-1.5,5.1-1.8c1.8-0.4,3.6-0.4,5.4-0.2c2.4,0.4,4.9,1.3,7.5,2.9C26.5,3.8,23.3,3,19.8,3.3z"/>
	<g>
		<path id="XMLID_35878_" class="st0" d="M8.5,25L8.5,25c1.8,0,3.5-0.7,4.7-2c1.3-1.3,2-2.9,2-4.7c0-3.7-3-6.7-6.7-6.7
			c-1.8,0-3.5,0.7-4.7,2c-1.3,1.3-2,2.9-2,4.7C1.8,22.1,4.8,25,8.5,25z M5,14.9c0.9-0.9,2.2-1.4,3.5-1.4c2.7,0,4.9,2.2,4.9,4.9
			c0,1.3-0.5,2.5-1.4,3.5c-0.9,0.9-2.2,1.4-3.5,1.4h0c-2.7,0-4.9-2.2-4.9-4.9C3.6,17.1,4.1,15.8,5,14.9z"/>
		<path id="XMLID_35875_" class="st0" d="M16.9,34.4c0-0.2,0.2-5.9-3.4-9.1c-0.3-0.3-0.8-0.3-1.1,0c0,0-4,3-7.6,0
			C4.5,25,4,25,3.6,25.3c-0.1,0.1-3.6,3.2-3.6,9.1c0,0.2,0.1,0.5,0.3,0.6c0.2,0.2,0.4,0.3,0.6,0.3l0,0l15.2,0
			C16.5,35.3,16.9,34.9,16.9,34.4z M1.8,33.5c0.3-3.4,1.7-5.5,2.5-6.4c3.2,2.1,6.6,1.1,8.5,0c1.8,2,2.2,5,2.3,6.4L1.8,33.5z"/>
	</g>
	<g>
		<path id="XMLID_35872_" class="st0" d="M25,13.6c-1.3,1.3-2,2.9-2,4.7c0,3.7,3,6.7,6.7,6.7h0c1.8,0,3.5-0.7,4.7-2
			c1.3-1.3,2-2.9,2-4.7c0-3.7-3-6.7-6.7-6.7C27.9,11.7,26.3,12.4,25,13.6z M34.6,18.4c0,1.3-0.5,2.5-1.4,3.5
			c-0.9,0.9-2.2,1.4-3.5,1.4h0c-2.7,0-4.9-2.2-4.9-4.9c0-1.3,0.5-2.5,1.4-3.5c0.9-0.9,2.2-1.4,3.5-1.4
			C32.4,13.4,34.6,15.6,34.6,18.4z"/>
		<path id="XMLID_35869_" class="st0" d="M34.8,25.3c-0.3-0.3-0.8-0.3-1.1,0c0,0-4,3-7.6,0c-0.3-0.3-0.8-0.3-1.1,0
			c-0.1,0.1-3.6,3.2-3.7,9.1c0,0.2,0.1,0.5,0.3,0.6c0.2,0.2,0.4,0.3,0.6,0.3h0l15.2,0c0.5,0,0.9-0.4,0.9-0.9
			C38.2,34.2,38.3,28.5,34.8,25.3z M23.1,33.5c0.3-3.4,1.7-5.5,2.5-6.4c3.2,2.1,6.6,1.1,8.5,0c1.8,2,2.2,5,2.3,6.4L23.1,33.5z"/>
	</g>
</g>
</svg>
