<?xml version="1.0" encoding="utf-8"?>
<!-- Generator: Adobe Illustrator 24.3.2, SVG Export Plug-In . SVG Version: 6.00 Build 0)  -->
<svg version="1.1" id="Layer_1" xmlns="http://www.w3.org/2000/svg" xmlns:xlink="http://www.w3.org/1999/xlink" x="0px" y="0px"
	 viewBox="0 0 45.8 39.3" style="enable-background:new 0 0 45.8 39.3;" xml:space="preserve">
<style type="text/css">
	.st0{fill:#FFFFFF;}
</style>
<g id="XMLID_37078_">
	<path id="XMLID_37082_" class="st0" d="M0.9,27.7h6.8c1.9,6.8,8.1,11.6,15.2,11.6c7.4,0,13.9-5.2,15.4-12.5c0.1-0.3,0-0.6-0.2-0.8
		c-0.2-0.2-0.4-0.3-0.7-0.3h-4.7c-0.4,0-0.8,0.3-0.9,0.6c-1.2,3.9-4.8,6.5-8.9,6.5c-3.6,0-6.8-2-8.4-5.2h6.7c0.4,0,0.7-0.2,0.9-0.6
		c0.1-0.3,0.1-0.7-0.2-1L11.7,15.9c-0.3-0.3-1-0.3-1.3,0L0.3,26.1c-0.3,0.3-0.3,0.7-0.2,1C0.2,27.4,0.6,27.7,0.9,27.7z M19,25.8
		h-5.9c-0.3,0-0.6,0.1-0.8,0.4c-0.2,0.2-0.2,0.6-0.1,0.8c1.5,4.6,5.8,7.7,10.7,7.7c4.7,0,8.8-2.9,10.5-7.2h2.8
		c-1.8,5.8-7.2,9.9-13.3,9.9c-6.5,0-12.2-4.6-13.6-10.9c-0.1-0.4-0.5-0.7-0.9-0.7H3.2l7.9-7.9L19,25.8z"/>
	<path id="XMLID_37079_" class="st0" d="M8.4,13.6h4.7c0.4,0,0.8-0.3,0.9-0.6c1.2-3.9,4.8-6.5,8.9-6.5c3.6,0,6.8,2.1,8.4,5.2h-6.7
		c-0.4,0-0.7,0.2-0.9,0.6c-0.1,0.3-0.1,0.7,0.2,1L34,23.4c0.2,0.2,0.4,0.3,0.7,0.3c0.2,0,0.5-0.1,0.7-0.3l10.2-10.2
		c0.3-0.3,0.3-0.7,0.2-1c-0.1-0.3-0.5-0.6-0.9-0.6h-6.8C36.2,4.8,30,0,22.9,0C15.5,0,9,5.2,7.5,12.5c-0.1,0.3,0,0.6,0.2,0.8
		C7.8,13.4,8.1,13.6,8.4,13.6z M22.9,1.9c6.5,0,12.2,4.6,13.6,10.9c0.1,0.4,0.5,0.7,0.9,0.7h5.3l-7.9,7.9l-7.9-7.9h5.9
		c0.3,0,0.6-0.1,0.8-0.4c0.2-0.2,0.2-0.6,0.1-0.8C32,7.6,27.7,4.5,22.9,4.5c-4.7,0-8.8,2.9-10.5,7.2H9.6C11.3,5.9,16.8,1.9,22.9,1.9
		z"/>
</g>
</svg>
