<?xml version="1.0" encoding="utf-8"?>
<!-- Generator: Adobe Illustrator 24.3.2, SVG Export Plug-In . SVG Version: 6.00 Build 0)  -->
<svg version="1.1" id="Layer_1" xmlns="http://www.w3.org/2000/svg" xmlns:xlink="http://www.w3.org/1999/xlink" x="0px" y="0px"
	 viewBox="0 0 33 39.6" style="enable-background:new 0 0 33 39.6;" xml:space="preserve">
<style type="text/css">
	.st0{fill:#FFFFFF;}
</style>
<g id="XMLID_37179_">
	<path id="XMLID_37180_" class="st0" d="M16.5,0c-1.5,0-3.2,1.2-3.2,2.8V7C5.7,8.5,0,15.2,0,23.2c0,9.1,7.4,16.5,16.5,16.5
		c9.1,0,16.5-7.4,16.5-16.5c0-8-5.7-14.7-13.3-16.2V2.8C19.6,1.2,18,0,16.5,0z M1.9,23.2c0-7,4.9-12.8,11.5-14.3v3.2
		C8.5,13.5,5,17.9,5,23.2c0,6.3,5.2,11.5,11.5,11.5c6.3,0,11.5-5.2,11.5-11.5c0-5.2-3.5-9.7-8.3-11V8.9c6.5,1.4,11.5,7.3,11.5,14.3
		c0,8.1-6.6,14.6-14.6,14.6C8.4,37.8,1.9,31.2,1.9,23.2z M16.5,1.9c0.6,0,1.3,0.5,1.3,0.9v16.4c0,0.4-0.7,0.9-1.3,0.9
		c-0.6,0-1.3-0.5-1.3-0.9V2.8C15.2,2.4,15.9,1.9,16.5,1.9z M16.5,22c1.5,0,3.2-1.2,3.2-2.8v-5.1c3.8,1.3,6.5,4.9,6.5,9.1
		c0,5.3-4.3,9.6-9.6,9.6c-5.3,0-9.6-4.3-9.6-9.6c0-4.2,2.7-7.8,6.5-9.1v5.1C13.3,20.8,15,22,16.5,22z"/>
</g>
</svg>
