<?xml version="1.0" encoding="utf-8"?>
<!-- Generator: Adobe Illustrator 24.3.2, SVG Export Plug-In . SVG Version: 6.00 Build 0)  -->
<svg version="1.1" id="Layer_1" xmlns="http://www.w3.org/2000/svg" xmlns:xlink="http://www.w3.org/1999/xlink" x="0px" y="0px"
	 viewBox="0 0 30.1 30.7" style="enable-background:new 0 0 30.1 30.7;" xml:space="preserve">
<style type="text/css">
	.st0{fill:#FFFFFF;}
</style>
<g>
	<g id="XMLID_37254_">
		<path id="XMLID_37255_" class="st0" d="M9.7,7.4c0-1.8,0.4-3.6,1.1-5.3c0.2-0.4,0.1-0.8-0.2-1.1c-0.3-0.3-0.7-0.4-1.1-0.2
			C3.7,3.2,0,8.8,0,15.1c0,8.6,7,15.6,15.6,15.6c6.3,0,11.9-3.7,14.3-9.5c0.2-0.4,0.1-0.8-0.2-1.1c-0.3-0.3-0.7-0.4-1.1-0.2
			c-1.7,0.7-3.5,1.1-5.3,1.1C15.8,21,9.7,14.9,9.7,7.4z M23.3,22.9c1.3,0,2.5-0.2,3.7-0.4c-2.5,3.8-6.8,6.2-11.4,6.2
			C8,28.7,1.9,22.6,1.9,15.1c0-4.7,2.4-9,6.2-11.4C7.9,4.9,7.7,6.1,7.7,7.4C7.7,15.9,14.7,22.9,23.3,22.9z"/>
	</g>
	<g id="XMLID_37_">
		<path id="XMLID_38_" class="st0" d="M18.4,6c0-0.8,0.2-1.5,0.5-2.3c0.1-0.2,0-0.3-0.1-0.5c-0.1-0.1-0.3-0.2-0.5-0.1
			c-2.4,1-4,3.4-4,6.1c0,3.6,3,6.6,6.6,6.6c2.7,0,5-1.6,6.1-4c0.1-0.2,0-0.3-0.1-0.5c-0.1-0.1-0.3-0.2-0.5-0.1
			c-0.7,0.3-1.5,0.5-2.3,0.5C21,11.7,18.4,9.1,18.4,6z M24.2,12.6c0.5,0,1.1-0.1,1.6-0.2C24.7,14,22.9,15,20.9,15
			c-3.2,0-5.8-2.6-5.8-5.8c0-2,1-3.8,2.6-4.9c-0.1,0.5-0.2,1-0.2,1.6C17.6,9.6,20.5,12.6,24.2,12.6z"/>
	</g>
	<g id="XMLID_41_">
		<path id="XMLID_42_" class="st0" d="M25,1.7c0-0.5,0.1-0.9,0.3-1.3c0-0.1,0-0.2-0.1-0.3C25.1,0,25,0,24.9,0
			c-1.5,0.6-2.4,2-2.4,3.6c0,2.2,1.8,3.9,3.9,3.9c1.6,0,3-0.9,3.6-2.4c0-0.1,0-0.2-0.1-0.3c-0.1-0.1-0.2-0.1-0.3-0.1
			c-0.4,0.2-0.9,0.3-1.3,0.3C26.5,5.1,25,3.6,25,1.7z M28.4,5.6c0.3,0,0.6,0,0.9-0.1c-0.6,1-1.7,1.6-2.9,1.6c-1.9,0-3.5-1.5-3.5-3.5
			c0-1.2,0.6-2.3,1.6-2.9c-0.1,0.3-0.1,0.6-0.1,0.9C24.5,3.9,26.2,5.6,28.4,5.6z"/>
	</g>
</g>
</svg>
